<svg width="210" height="83" viewBox="0 0 210 83" fill="none" xmlns="http://www.w3.org/2000/svg">
<g id="Frame" clip-path="url(#clip0_594_33860)">
<g id="Shadow">
<path id="&#60;Path&#62;" opacity="0.25" d="M105.81 83C160.186 83 204.267 80.4507 204.267 77.3061C204.267 74.1614 160.186 71.6121 105.81 71.6121C51.4336 71.6121 7.35291 74.1614 7.35291 77.3061C7.35291 80.4507 51.4336 83 105.81 83Z" fill="black"/>
</g>
<g id="Limousine">
<path id="Vector" d="M207.588 68.7048L24.7806 69.9371C18.0158 69.9809 11.307 68.7219 5.02723 66.23L2.82337 65.3548C1.45739 64.8115 0.553524 64.1224 0.167597 62.704C-0.0983006 61.6598 -0.0072193 60.5577 0.426579 59.5703L3.9507 51.1903C8.39901 42.8656 12.6544 42.1615 19.6924 42.1615L166.314 43.4843L196.051 45.1795C197.819 45.2801 199.536 45.8035 201.055 46.7049C202.575 47.6062 203.851 48.8588 204.775 50.3553L209.035 57.2464L207.588 68.7048Z" fill="#407BFF"/>
<path id="Vector_2" opacity="0.1" d="M209.061 57.2514L207.608 68.7098L24.8009 69.9371C18.0343 69.9828 11.3234 68.7237 5.04243 66.23L2.84369 65.3598C2.51771 65.2348 2.20191 65.0852 1.89916 64.9121C1.40456 64.6414 0.983059 64.2567 0.670298 63.7904C0.640296 63.7505 0.613161 63.7084 0.589064 63.6647C0.434585 63.4093 0.313428 63.1355 0.228516 62.8498C0.289126 62.6379 0.362028 62.4297 0.446865 62.2261L3.9659 53.8461C8.41422 45.5215 12.6746 44.8173 19.7077 44.8173L168.157 46.1452L197.889 47.8353C199.342 47.9194 200.764 48.2892 202.072 48.923C203.38 49.5569 204.547 50.4422 205.506 51.5273L208.695 56.6881L209.061 57.2514Z" fill="#3690FF"/>
<path id="Vector_3" opacity="0.1" d="M209.061 57.2514L207.608 68.7098L24.8009 69.9371C18.0343 69.9828 11.3234 68.7237 5.04243 66.23L2.84368 65.3598C2.5177 65.2348 2.20191 65.0852 1.89915 64.9121L0.670291 63.7904L0.568726 63.6999V63.6647C5.00688 55.3702 9.26731 53.6651 16.3105 53.6651L176.379 54.993L208.654 56.6831H208.7L209.061 57.2514Z" fill="black"/>
<path id="Vector_4" opacity="0.5" d="M205.506 51.5273C204.547 50.4422 203.38 49.5569 202.072 48.923C200.764 48.2892 199.343 47.9194 197.889 47.8353L168.152 46.1452L19.7027 44.8173C12.6493 44.8173 8.38891 45.5215 3.96091 53.8461L0.441868 62.2261C0.357031 62.4297 0.284129 62.6379 0.223518 62.8498C0.223518 62.8046 0.193067 62.7543 0.177834 62.709C-0.0864676 61.6643 0.00637487 60.5622 0.441868 59.5753L3.96091 51.1903C8.40922 42.8656 12.6696 42.1615 19.7027 42.1615L166.324 43.4894L196.061 45.1795C197.829 45.2813 199.545 45.8053 201.064 46.7065C202.584 47.6078 203.86 48.8596 204.785 50.3553L205.506 51.5273Z" fill="white"/>
<path id="Vector_5" d="M19.6975 42.1615C19.6975 42.1615 27.4313 40.5166 45.0874 33.2734C51.5669 30.6075 58.3409 28.6911 65.3486 28.3189L86.7269 27.1871C93.6177 26.8241 100.524 26.8711 107.41 27.328L121.851 28.2938C127.953 28.7007 133.945 30.0993 139.589 32.4334L166.319 43.4994L19.6975 42.1615Z" fill="#407BFF"/>
<path id="Vector_6" opacity="0.5" d="M19.6975 42.1615C19.6975 42.1615 27.4313 40.5166 45.0874 33.2734C51.5669 30.6075 58.3409 28.6911 65.3486 28.3189L86.7269 27.1871C93.6177 26.8241 100.524 26.8711 107.41 27.328L121.851 28.2938C127.953 28.7007 133.945 30.0993 139.589 32.4334L166.319 43.4994L19.6975 42.1615Z" fill="#2CA5FF"/>
<path id="Vector_7" d="M164.76 54.6157H4.86473C4.00147 54.6157 3.30579 54.8572 3.30579 55.159C3.30579 55.4557 4.00147 55.6972 4.86473 55.6972H164.76C165.624 55.6972 166.319 55.4557 166.319 55.159C166.319 54.8572 165.624 54.6157 164.76 54.6157Z" fill="white"/>
<path id="Vector_8" d="M28.2133 69.917V66.4412C28.2153 63.059 29.5488 59.811 31.9303 57.3872L32.8596 56.4416C34.0824 55.1951 35.5452 54.2042 37.1614 53.5277C38.7777 52.8512 40.5145 52.5028 42.2691 52.5031H44.6507C46.6973 52.499 48.7166 52.9685 50.5477 53.874C52.3788 54.7796 53.9711 56.0963 55.1977 57.7192C56.8818 59.9755 57.7865 62.7097 57.7773 65.5157V69.9421L28.2133 69.917Z" fill="black"/>
<path id="Vector_9" d="M51.9386 73.4174C56.5394 68.8601 56.5394 61.4713 51.9386 56.9141C47.3379 52.3568 39.8786 52.3568 35.2779 56.9141C30.6771 61.4713 30.6771 68.8601 35.2779 73.4174C39.8786 77.9746 47.3379 77.9746 51.9386 73.4174Z" fill="#263238"/>
<path id="Vector_10" opacity="0.5" d="M45.3772 72.5108C49.4605 71.5562 51.9895 67.5034 51.0257 63.4586C50.062 59.4139 45.9705 56.9089 41.8872 57.8635C37.8038 58.8182 35.2749 62.8709 36.2387 66.9157C37.2024 70.9604 41.2939 73.4655 45.3772 72.5108Z" fill="white"/>
<path id="Vector_11" opacity="0.3" d="M50.4904 65.1636C50.49 65.4801 50.4663 65.7962 50.4193 66.1093C50.2147 67.5568 49.5453 68.9007 48.5102 69.9424C47.475 70.9841 46.129 71.6682 44.6711 71.8938C44.3188 71.9528 43.9619 71.9814 43.6047 71.9793C43.2956 71.9794 42.9868 71.9592 42.6805 71.9189C41.5493 71.7674 40.4741 71.3386 39.5524 70.6715C39.0013 70.2764 38.5149 69.7997 38.1103 69.258C37.42 68.3537 36.9711 67.2914 36.8053 66.1696C36.7524 65.8368 36.7252 65.5005 36.724 65.1636C36.7259 64.8268 36.7531 64.4905 36.8053 64.1576C36.9702 63.0371 37.4192 61.9763 38.1103 61.0742C38.5196 60.5363 39.0073 60.0617 39.5575 59.6658C40.4779 58.9973 41.5539 58.5699 42.6855 58.4234C42.9901 58.3813 43.2972 58.3594 43.6047 58.358C43.96 58.3567 44.3149 58.3836 44.666 58.4385C46.1241 58.6628 47.4707 59.3458 48.5068 60.3865C49.5428 61.4273 50.2134 62.7706 50.4193 64.218C50.4654 64.5312 50.4892 64.8471 50.4904 65.1636Z" fill="white"/>
<path id="Vector_12" opacity="0.4" d="M48.8197 66.4393C49.5026 63.5734 47.7107 60.7018 44.8175 60.0254C41.9242 59.3489 39.0252 61.1239 38.3423 63.9898C37.6594 66.8557 39.4513 69.7274 42.3446 70.4038C45.2378 71.0802 48.1369 69.3053 48.8197 66.4393Z" fill="white"/>
<path id="Vector_13" opacity="0.2" d="M43.5945 68.6947C45.4959 68.6947 47.0374 67.1678 47.0374 65.2843C47.0374 63.4009 45.4959 61.874 43.5945 61.874C41.693 61.874 40.1516 63.4009 40.1516 65.2843C40.1516 67.1678 41.693 68.6947 43.5945 68.6947Z" fill="black"/>
<path id="Vector_14" d="M45.2347 65.2391C45.2337 65.5682 45.1342 65.8896 44.9489 66.1627C44.7636 66.4358 44.5008 66.6484 44.1936 66.7737C43.8864 66.8989 43.5486 66.9312 43.2228 66.8664C42.8971 66.8016 42.5981 66.6426 42.3636 66.4095C42.129 66.1765 41.9694 65.8798 41.905 65.557C41.8405 65.2342 41.8741 64.8997 42.0015 64.5958C42.1288 64.2918 42.3443 64.0321 42.6206 63.8494C42.8969 63.6666 43.2216 63.5691 43.5539 63.5691C43.775 63.5691 43.994 63.6123 44.1982 63.6963C44.4025 63.7803 44.588 63.9034 44.7442 64.0585C44.9003 64.2137 45.024 64.3978 45.1082 64.6004C45.1924 64.803 45.2353 65.02 45.2347 65.2391Z" fill="white"/>
<path id="Vector_15" d="M44.6659 58.4285C44.5815 58.6159 44.4439 58.7751 44.27 58.8867C44.096 58.9983 43.8931 59.0575 43.6859 59.0572C43.4715 59.0606 43.2608 59.0013 43.0802 58.8868C42.8996 58.7723 42.757 58.6076 42.6703 58.4134C42.9748 58.3712 43.2819 58.3494 43.5894 58.348C43.9499 58.3459 44.3099 58.3728 44.6659 58.4285Z" fill="#263238"/>
<path id="Vector_16" d="M44.671 71.8938C44.3187 71.9528 43.9619 71.9814 43.6046 71.9793C43.2955 71.9794 42.9868 71.9592 42.6804 71.9189C42.7649 71.7219 42.9064 71.554 43.0872 71.4367C43.268 71.3194 43.4799 71.2579 43.696 71.26C43.9027 71.2623 44.1043 71.3233 44.2771 71.4356C44.4499 71.5479 44.5866 71.7069 44.671 71.8938Z" fill="#263238"/>
<path id="Vector_17" d="M39.3239 60.8429C39.1685 60.9979 38.969 61.1022 38.752 61.1418C38.5351 61.1814 38.3112 61.1543 38.1102 61.0642C38.5195 60.5263 39.0073 60.0516 39.5575 59.6558C39.6452 59.8537 39.6698 60.0734 39.6281 60.2855C39.5863 60.4976 39.4802 60.6921 39.3239 60.8429Z" fill="#263238"/>
<path id="Vector_18" d="M49.1448 69.2128C48.7581 69.7315 48.2981 70.1923 47.7788 70.5809C47.7142 70.3918 47.7041 70.1886 47.7494 69.9941C47.7948 69.7995 47.8939 69.6213 48.0356 69.4794C48.1773 69.3374 48.3561 69.2373 48.552 69.1902C48.7479 69.1431 48.9531 69.151 49.1448 69.2128Z" fill="#263238"/>
<path id="Vector_19" d="M37.5212 65.1586C37.5208 65.3789 37.4518 65.5936 37.3236 65.7736C37.1955 65.9536 37.0145 66.0902 36.8053 66.1646C36.7524 65.8318 36.7252 65.4955 36.724 65.1586C36.7259 64.8217 36.7531 64.4855 36.8053 64.1526C37.0145 64.2271 37.1955 64.3636 37.3236 64.5436C37.4518 64.7236 37.5208 64.9384 37.5212 65.1586Z" fill="#263238"/>
<path id="Vector_20" d="M50.4904 65.1636C50.49 65.4801 50.4663 65.7962 50.4194 66.1093C50.2465 66.0164 50.1022 65.8791 50.0017 65.7118C49.9011 65.5445 49.848 65.3533 49.848 65.1586C49.848 64.9639 49.9011 64.7727 50.0017 64.6054C50.1022 64.4381 50.2465 64.3008 50.4194 64.2079C50.4659 64.5244 50.4897 64.8438 50.4904 65.1636Z" fill="#263238"/>
<path id="Vector_21" d="M39.5524 70.6715C39.0013 70.2765 38.5149 69.7997 38.1102 69.2581C38.3105 69.1686 38.5335 69.1413 38.7497 69.1798C38.966 69.2184 39.1653 69.321 39.3215 69.4741C39.4777 69.6271 39.5834 69.8235 39.6246 70.0373C39.6658 70.2511 39.6406 70.4722 39.5524 70.6715Z" fill="#263238"/>
<path id="Vector_22" d="M49.1397 61.1094C48.9485 61.1681 48.7448 61.1735 48.5507 61.1252C48.3566 61.0768 48.1796 60.9766 48.0392 60.8354C47.8987 60.6942 47.8001 60.5174 47.7542 60.3245C47.7083 60.1315 47.7168 59.9298 47.7788 59.7413C48.2954 60.1314 48.7536 60.592 49.1397 61.1094Z" fill="#263238"/>
<path id="Vector_23" d="M169.132 68.7601V65.2894C169.137 61.9076 170.47 58.6603 172.85 56.2354L173.784 55.2898C175.006 54.043 176.469 53.052 178.085 52.3755C179.702 51.6989 181.439 51.3507 183.193 51.3513H185.57C187.615 51.3512 189.631 51.8242 191.458 52.7324C193.286 53.6406 194.874 54.9589 196.097 56.5825C197.786 58.8278 198.698 61.5536 198.696 64.3538V68.7752L169.132 68.7601Z" fill="black"/>
<path id="Vector_24" d="M184.529 75.6814C191.035 75.6814 196.31 70.4567 196.31 64.0118C196.31 57.5668 191.035 52.3422 184.529 52.3422C178.022 52.3422 172.748 57.5668 172.748 64.0118C172.748 70.4567 178.022 75.6814 184.529 75.6814Z" fill="#263238"/>
<path id="Vector_25" opacity="0.5" d="M189.933 69.3393C192.899 66.4007 192.899 61.6362 189.933 58.6976C186.966 55.7589 182.156 55.7589 179.189 58.6975C176.223 61.6362 176.223 66.4007 179.189 69.3393C182.156 72.278 186.966 72.278 189.933 69.3393Z" fill="white"/>
<path id="Vector_26" opacity="0.3" d="M191.41 64.0067C191.411 64.3231 191.389 64.6392 191.344 64.9524C191.139 66.3999 190.469 67.7438 189.434 68.7855C188.399 69.8272 187.053 70.5113 185.595 70.7369C185.243 70.7957 184.886 70.8243 184.529 70.8224C184.22 70.8226 183.911 70.8025 183.605 70.762C182.473 70.6115 181.398 70.1826 180.477 69.5146C179.924 69.1197 179.436 68.643 179.029 68.1012C178.339 67.1968 177.89 66.1345 177.724 65.0127C177.673 64.6798 177.648 64.3435 177.648 64.0067C177.647 62.5271 178.134 61.0875 179.034 59.9073C179.579 59.185 180.264 58.5779 181.049 58.1217C181.833 57.6656 182.703 57.3697 183.605 57.2515C183.909 57.2108 184.216 57.1907 184.524 57.1911C184.879 57.1902 185.234 57.2171 185.585 57.2716C186.717 57.4465 187.786 57.8977 188.698 58.5844C189.212 58.9759 189.668 59.4364 190.054 59.9526C190.736 60.8632 191.177 61.9283 191.338 63.051C191.385 63.3675 191.409 63.6869 191.41 64.0067Z" fill="white"/>
<path id="Vector_27" opacity="0.4" d="M189.734 65.285C190.417 62.4191 188.625 59.5474 185.732 58.871C182.838 58.1946 179.939 59.9696 179.256 62.8355C178.574 65.7014 180.365 68.573 183.259 69.2495C186.152 69.9259 189.051 68.1509 189.734 65.285Z" fill="white"/>
<path id="Vector_28" opacity="0.2" d="M187.962 64.1325C187.962 64.8082 187.759 65.4687 187.38 66.0305C187.001 66.5922 186.462 67.03 185.832 67.2883C185.202 67.5467 184.508 67.614 183.839 67.4818C183.17 67.3497 182.556 67.0239 182.074 66.5457C181.592 66.0676 181.264 65.4585 181.131 64.7957C180.999 64.1328 181.068 63.446 181.33 62.822C181.591 62.198 182.034 61.6649 182.602 61.2903C183.169 60.9156 183.837 60.7161 184.519 60.7171C185.432 60.7184 186.308 61.0789 186.953 61.7192C187.599 62.3596 187.962 63.2275 187.962 64.1325Z" fill="black"/>
<path id="Vector_29" d="M186.159 64.0822C186.159 64.4115 186.06 64.7334 185.876 65.0072C185.691 65.281 185.428 65.4944 185.121 65.6204C184.814 65.7464 184.476 65.7794 184.15 65.7151C183.824 65.6509 183.525 65.4923 183.29 65.2595C183.054 65.0266 182.894 64.73 182.83 64.407C182.765 64.084 182.798 63.7493 182.925 63.445C183.052 63.1408 183.268 62.8808 183.544 62.6978C183.821 62.5149 184.146 62.4173 184.478 62.4173C184.923 62.4186 185.35 62.5944 185.665 62.9064C185.98 63.2183 186.158 63.641 186.159 64.0822Z" fill="white"/>
<path id="Vector_30" d="M185.59 57.2766C185.505 57.4648 185.367 57.6245 185.192 57.7362C185.017 57.8479 184.813 57.9066 184.605 57.9053C184.39 57.9089 184.179 57.8492 183.998 57.7336C183.817 57.6181 183.675 57.4521 183.589 57.2565C183.894 57.2158 184.201 57.1957 184.509 57.1961C184.871 57.1941 185.232 57.221 185.59 57.2766Z" fill="#263238"/>
<path id="Vector_31" d="M185.595 70.7419C185.243 70.8007 184.886 70.8293 184.529 70.8274C184.22 70.8277 183.911 70.8075 183.605 70.7671C183.687 70.5744 183.824 70.4096 183.999 70.293C184.175 70.1763 184.38 70.1127 184.592 70.11C184.803 70.1074 185.01 70.1657 185.188 70.2779C185.367 70.3901 185.508 70.5514 185.595 70.7419Z" fill="#263238"/>
<path id="Vector_32" d="M180.248 59.691C180.092 59.8454 179.893 59.9493 179.676 59.9889C179.459 60.0284 179.236 60.0017 179.034 59.9123C179.443 59.3741 179.929 58.898 180.477 58.4989C180.564 58.6973 180.589 58.9172 180.548 59.1299C180.507 59.3425 180.403 59.5381 180.248 59.691Z" fill="#263238"/>
<path id="Vector_33" d="M190.064 68.0609C189.678 68.5783 189.22 69.0389 188.703 69.4291C188.637 69.2403 188.626 69.037 188.67 68.8422C188.714 68.6473 188.813 68.4687 188.955 68.3264C189.096 68.1841 189.275 68.0838 189.471 68.0369C189.667 67.99 189.872 67.9983 190.064 68.0609Z" fill="#263238"/>
<path id="Vector_34" d="M178.445 64.0067C178.444 64.2274 178.374 64.4423 178.245 64.6222C178.116 64.8022 177.934 64.9385 177.724 65.0127C177.673 64.6798 177.648 64.3435 177.648 64.0067C177.648 63.67 177.674 63.3337 177.724 63.0007C177.934 63.075 178.116 63.2113 178.245 63.3912C178.374 63.5712 178.444 63.7861 178.445 64.0067Z" fill="#263238"/>
<path id="Vector_35" d="M191.41 64.0067C191.411 64.3231 191.389 64.6392 191.344 64.9524C191.169 64.8607 191.024 64.7238 190.922 64.5563C190.82 64.3888 190.767 64.1971 190.767 64.0017C190.767 63.8063 190.82 63.6145 190.922 63.4471C191.024 63.2796 191.169 63.1427 191.344 63.051C191.389 63.3676 191.411 63.687 191.41 64.0067Z" fill="#263238"/>
<path id="Vector_36" d="M180.477 69.5397C179.924 69.1448 179.436 68.6681 179.029 68.1263C179.23 68.0345 179.455 68.0059 179.673 68.0446C179.891 68.0833 180.092 68.1873 180.248 68.3426C180.403 68.4967 180.507 68.6931 180.548 68.9065C180.588 69.1198 180.564 69.3404 180.477 69.5397Z" fill="#263238"/>
<path id="Vector_37" d="M190.059 59.9827C189.868 60.0421 189.664 60.048 189.47 59.9998C189.275 59.9516 189.098 59.8512 188.958 59.7097C188.818 59.5681 188.72 59.391 188.675 59.1977C188.63 59.0045 188.64 58.8027 188.703 58.6146C189.217 59.0061 189.673 59.4666 190.059 59.9827Z" fill="#263238"/>
<path id="Vector_38" d="M196.096 56.5674H208.522C208.724 56.5725 208.923 56.6174 209.107 56.6994C209.291 56.7813 209.457 56.8987 209.595 57.0447C209.733 57.1908 209.84 57.3625 209.911 57.55C209.981 57.7374 210.013 57.9369 210.005 58.1367V60.2091C210.013 60.4077 209.982 60.606 209.912 60.7925C209.843 60.979 209.737 61.15 209.601 61.2959C209.464 61.4417 209.3 61.5594 209.118 61.6422C208.935 61.725 208.738 61.7713 208.538 61.7785L198.727 61.874C198.347 60.1932 197.619 58.6089 196.589 57.2213L196.096 56.5674Z" fill="#407BFF"/>
<path id="Vector_39" d="M198.696 66.5469H207.801L208.131 68.7651H198.696V66.5469Z" fill="#407BFF"/>
<path id="Vector_40" d="M54.3649 40.3657C54.3649 40.3657 61.6061 31.5029 70.7769 30.351C78.0283 29.4406 91.9724 28.842 104.479 29.1036C107.983 29.174 132.175 29.1036 137.557 33.701L153.807 41.6735L54.3649 40.3657Z" fill="black"/>
<g id="Group" opacity="0.3">
<path id="Vector_41" d="M89.5046 67.3115C75.2507 67.3115 64.0791 67.2762 62.5506 67.1555C57.9144 66.7883 54.4868 43.0769 54.1161 40.3758V40.2551L54.2024 40.1645C63.3428 30.7333 70.452 30.1046 70.777 30.0744C83.3094 27.4387 126.34 29.5714 132.378 31.1106C133.942 31.5029 144.961 36.9554 153.934 41.4573C155.401 42.1917 156.632 43.3163 157.489 44.7049C158.346 46.0936 158.796 47.6914 158.789 49.3191V65.2441C158.787 65.7511 158.584 66.237 158.222 66.596C157.861 66.955 157.371 67.1579 156.859 67.1605C147.358 67.1958 113.914 67.3115 89.5046 67.3115ZM54.6341 40.4261C55.6496 47.7448 59.0316 66.3759 62.5912 66.6525C66.7146 66.9744 141.808 66.7129 156.839 66.6525C157.216 66.6512 157.578 66.5017 157.844 66.2368C158.111 65.9718 158.26 65.6131 158.26 65.2391V49.3191C158.267 47.7871 157.844 46.2834 157.036 44.9765C156.229 43.6697 155.071 42.6113 153.69 41.92C140.995 35.5571 133.378 31.8952 132.21 31.5985C126.193 30.0895 83.3196 27.9366 70.8023 30.5925C70.7262 30.5824 63.5967 31.2313 54.6341 40.4261Z" fill="black"/>
</g>
<g id="Group_2" opacity="0.3">
<path id="Vector_42" d="M92.7494 29.7726H92.2416V66.904H92.7494V29.7726Z" fill="black"/>
<path id="Vector_43" d="M117.479 29.7726H116.971V66.904H117.479V29.7726Z" fill="black"/>
</g>
<path id="Vector_44" opacity="0.3" d="M126.442 46.0798C126.433 46.1909 126.399 46.2985 126.342 46.3944C126.284 46.4903 126.206 46.572 126.112 46.6331C125.508 47.1361 124.131 47.4681 122.522 47.4681C120.912 47.4681 119.536 47.1261 118.932 46.6331C118.837 46.572 118.759 46.4903 118.702 46.3944C118.644 46.2985 118.61 46.1909 118.601 46.0798C118.612 45.9642 118.649 45.8524 118.71 45.7531C118.771 45.6537 118.853 45.5693 118.952 45.5064C119.571 45.0034 120.937 44.6966 122.506 44.6966C124.076 44.6966 125.457 45.0286 126.061 45.5064C126.166 45.565 126.255 45.6476 126.322 45.7474C126.388 45.8471 126.429 45.9611 126.442 46.0798Z" fill="white"/>
<path id="Vector_45" d="M126.442 46.0798C126.433 46.1909 126.399 46.2985 126.342 46.3944C126.284 46.4903 126.206 46.572 126.112 46.6331H118.932C118.837 46.572 118.759 46.4903 118.702 46.3944C118.644 46.2985 118.61 46.1909 118.601 46.0798C118.612 45.9641 118.649 45.8524 118.71 45.753C118.771 45.6537 118.853 45.5693 118.952 45.5064H126.091C126.191 45.5685 126.274 45.6526 126.335 45.7521C126.396 45.8517 126.432 45.9638 126.442 46.0798Z" fill="white"/>
<path id="Vector_46" opacity="0.3" d="M65.8615 45.778C65.8528 45.8891 65.8185 45.9967 65.7613 46.0926C65.7041 46.1885 65.6254 46.2702 65.5314 46.3313C64.9271 46.8343 63.5459 47.1663 61.9413 47.1663C60.3367 47.1663 58.9554 46.8243 58.3512 46.3313C58.2565 46.2704 58.177 46.189 58.119 46.0931C58.0609 45.9972 58.0256 45.8894 58.016 45.778C58.0264 45.6617 58.0639 45.5494 58.1256 45.4499C58.1873 45.3504 58.2715 45.2664 58.3715 45.2046C58.991 44.7267 60.3569 44.3948 61.926 44.3948C63.4951 44.3948 64.8764 44.7267 65.4806 45.2046C65.5854 45.2635 65.6745 45.3462 65.7407 45.4459C65.8069 45.5456 65.8483 45.6594 65.8615 45.778Z" fill="white"/>
<path id="Vector_47" d="M65.8615 45.778C65.8528 45.8891 65.8186 45.9967 65.7613 46.0926C65.7041 46.1885 65.6255 46.2702 65.5315 46.3313H58.3715C58.2768 46.2704 58.1974 46.189 58.1393 46.0931C58.0812 45.9972 58.046 45.8894 58.0364 45.778C58.0468 45.6617 58.0843 45.5494 58.146 45.4499C58.2077 45.3504 58.2918 45.2664 58.3918 45.2046H65.5264C65.6226 45.2686 65.7028 45.3535 65.7609 45.4529C65.819 45.5523 65.8534 45.6635 65.8615 45.778Z" fill="white"/>
<path id="Vector_48" d="M147.053 41.246V41.6886C147.053 41.9554 147.16 42.2113 147.351 42.4C147.541 42.5886 147.8 42.6946 148.069 42.6946C148.338 42.6946 148.597 42.5886 148.787 42.4C148.978 42.2113 149.085 41.9554 149.085 41.6886V40.8134L147.053 41.246Z" fill="#407BFF"/>
<path id="Vector_49" opacity="0.1" d="M147.053 41.246V41.6886C147.053 41.9554 147.16 42.2113 147.351 42.4C147.541 42.5886 147.8 42.6946 148.069 42.6946C148.338 42.6946 148.597 42.5886 148.787 42.4C148.978 42.2113 149.085 41.9554 149.085 41.6886V40.8134L147.053 41.246Z" fill="black"/>
<path id="Vector_50" d="M148.455 41.5478H145.037V37.1264L146.525 37.9413C147.64 38.5377 148.53 39.4744 149.064 40.6122C149.113 40.7129 149.134 40.8243 149.127 40.9357C149.12 41.047 149.084 41.1547 149.023 41.2485C148.962 41.3423 148.878 41.419 148.778 41.4714C148.679 41.5238 148.568 41.5501 148.455 41.5478Z" fill="#407BFF"/>
<path id="Vector_51" opacity="0.7" d="M16.4629 44.8223L16.3461 44.9129L3.40231 55.0684L3.28552 55.159C3.28552 55.159 5.27609 45.5064 9.98338 44.8223C14.6907 44.1382 16.4629 44.8223 16.4629 44.8223Z" fill="white"/>
<path id="Vector_52" opacity="0.8" d="M203.216 53.3884C201.185 50.0736 200.271 49.5455 198.036 48.454L197.107 48.0063L197.681 48.0365C199.134 48.1206 200.556 48.4904 201.864 49.1242C203.172 49.7581 204.339 50.6434 205.298 51.7285L208.177 56.3863C208.233 56.6328 204.196 55.0131 203.216 53.3884Z" fill="white"/>
<path id="Vector_53" d="M205.298 51.7285C205.298 51.7285 202.561 52.2567 203.414 53.6651C204.267 55.0735 207.649 55.5312 207.649 55.5312L205.298 51.7285Z" fill="white"/>
</g>
<g id="Character">
<path id="Vector_54" d="M109.811 71.0236L110.233 74.9419H112.31L112.178 70.4451L109.811 71.0236Z" fill="#DD8C6A"/>
<path id="Vector_55" opacity="0.2" d="M112.203 71.2298L109.867 71.5115L110.035 73.0909L112.249 72.7941L112.203 71.2298Z" fill="black"/>
<path id="Vector_56" d="M112.579 74.4238H110.116C110.072 74.4231 110.029 74.4378 109.994 74.4654C109.96 74.493 109.937 74.5317 109.928 74.5748L109.532 76.5817C109.523 76.6303 109.525 76.6803 109.538 76.7281C109.551 76.7758 109.574 76.8202 109.606 76.8581C109.638 76.8961 109.678 76.9266 109.723 76.9475C109.768 76.9684 109.817 76.9792 109.867 76.9791C110.756 76.9791 112.036 76.9087 113.153 76.9087C114.458 76.9087 114.463 76.9791 115.996 76.9791C116.921 76.9791 117.144 76.0536 116.753 75.9731C114.976 75.5958 114.661 75.5506 113.102 74.62C112.948 74.5101 112.768 74.4424 112.579 74.4238Z" fill="#263238"/>
<path id="Vector_57" d="M113.493 74.7961C113.782 74.7961 114.057 74.7558 114.148 74.625C114.172 74.5919 114.184 74.5524 114.184 74.5119C114.184 74.4713 114.172 74.4318 114.148 74.3987C114.129 74.3668 114.103 74.3392 114.072 74.3175C114.042 74.2959 114.007 74.2807 113.97 74.2729C113.594 74.1723 112.823 74.615 112.787 74.6351C112.783 74.6438 112.781 74.6533 112.781 74.6628C112.781 74.6723 112.783 74.6817 112.787 74.6904C112.79 74.7008 112.796 74.7101 112.804 74.7173C112.812 74.7244 112.822 74.7291 112.833 74.7307C113.051 74.7713 113.271 74.7932 113.493 74.7961ZM113.833 74.3635H113.94C113.983 74.3766 114.02 74.4031 114.046 74.4389C114.087 74.5043 114.072 74.5345 114.046 74.5546C113.945 74.7005 113.376 74.7055 112.955 74.6452C113.225 74.4939 113.524 74.3981 113.833 74.3635Z" fill="#407BFF"/>
<path id="Vector_58" d="M112.807 74.7357C113.077 74.615 113.6 74.1321 113.549 73.8756C113.549 73.8202 113.493 73.7448 113.346 73.7297C113.293 73.7239 113.24 73.729 113.189 73.7446C113.138 73.7602 113.091 73.7859 113.051 73.8203C112.855 74.0662 112.743 74.3673 112.731 74.6804C112.728 74.6883 112.726 74.6968 112.726 74.7055C112.726 74.7142 112.728 74.7228 112.731 74.7307L112.807 74.7357ZM113.315 73.8303H113.346C113.442 73.8303 113.452 73.8756 113.452 73.8907C113.483 74.0416 113.132 74.4188 112.858 74.5848C112.876 74.3326 112.972 74.0919 113.132 73.8957C113.186 73.8506 113.255 73.8272 113.325 73.8303H113.315Z" fill="#407BFF"/>
<path id="Vector_59" d="M112.848 72.0799L109.415 72.442L107.323 52.5786L104.408 38.565L103.027 31.9204L102.418 29.008L104.012 27.9668L104.891 27.3934L107.354 26.996L108.684 29.1237C108.755 29.7223 108.882 30.5623 109.055 31.6035C109.786 35.9896 111.259 43.8566 111.975 51.482C112.95 61.9142 112.848 72.0799 112.848 72.0799Z" fill="#263238"/>
<path id="Vector_60" opacity="0.2" d="M106.145 46.5174L102.946 31.5481L104.891 32.7352L106.145 46.5174Z" fill="black"/>
<path id="Vector_61" d="M99.239 70.7671L99.3304 74.7055L101.499 74.6603L101.646 70.3898L99.239 70.7671Z" fill="#DD8C6A"/>
<path id="Vector_62" d="M101.844 74.7156C101.834 74.7132 101.825 74.7081 101.818 74.7011C101.811 74.694 101.806 74.6851 101.803 74.6754C101.801 74.6647 101.802 74.6535 101.807 74.6435C101.811 74.6335 101.819 74.6253 101.829 74.62C101.864 74.62 102.631 74.1774 102.997 74.278C103.065 74.2974 103.124 74.3425 103.159 74.4037C103.182 74.4361 103.195 74.4748 103.195 74.5144C103.195 74.5541 103.182 74.5927 103.159 74.6251C102.969 74.7547 102.738 74.8119 102.509 74.786C102.286 74.7822 102.063 74.7586 101.844 74.7156ZM102.017 74.6502C102.423 74.7055 102.976 74.7055 103.078 74.5647C103.078 74.5647 103.109 74.5144 103.078 74.454C103.068 74.4345 103.054 74.4176 103.036 74.4045C103.019 74.3914 102.998 74.3825 102.977 74.3786C102.945 74.3738 102.912 74.3738 102.88 74.3786C102.578 74.4147 102.285 74.5068 102.017 74.6502Z" fill="#407BFF"/>
<path id="Vector_63" d="M101.819 74.7156C101.815 74.7077 101.813 74.6991 101.813 74.6904C101.813 74.6817 101.815 74.6732 101.819 74.6653C101.847 74.358 101.969 74.0666 102.169 73.8303C102.209 73.7972 102.255 73.7726 102.305 73.7579C102.355 73.7432 102.407 73.7387 102.458 73.7448C102.601 73.7448 102.646 73.8303 102.651 73.8906C102.697 74.1371 102.144 74.5999 101.9 74.7156H101.844H101.819ZM102.398 73.8403C102.332 73.8391 102.269 73.8625 102.22 73.9057C102.052 74.0908 101.945 74.3226 101.915 74.5697C102.189 74.4087 102.54 74.0667 102.525 73.9007C102.525 73.9007 102.524 73.8454 102.423 73.8403H102.398Z" fill="#407BFF"/>
<path id="Vector_64" d="M101.626 74.4088H99.2289C99.1856 74.4087 99.1435 74.423 99.1095 74.4495C99.0754 74.4759 99.0513 74.513 99.041 74.5546L98.5891 76.4811C98.5793 76.5217 98.5777 76.5639 98.5844 76.6051C98.5911 76.6464 98.6059 76.6859 98.6281 76.7214C98.6503 76.757 98.6794 76.7878 98.7136 76.8122C98.7479 76.8365 98.7867 76.8539 98.8277 76.8634H98.8937C99.757 76.8634 100.524 76.8181 101.6 76.8282C102.865 76.8282 102.545 76.9892 104.033 77.0244C104.931 77.0244 105.109 76.0184 104.728 75.9781C102.987 75.7467 102.809 75.2236 102.144 74.5999C102 74.4759 101.816 74.4079 101.626 74.4088Z" fill="#263238"/>
<path id="Vector_65" opacity="0.2" d="M101.595 71.8183L99.2644 71.9843L99.2949 73.1462L101.555 73.1211L101.595 71.8183Z" fill="black"/>
<path id="Vector_66" d="M104.891 30.18C104.891 30.4516 104.866 30.7685 104.845 31.1307C104.754 32.8207 104.601 35.4414 104.408 38.565C103.621 51.3814 102.205 72.6835 102.205 72.6835H98.9547V31.855V29.0583L101.555 27.8511H103.946L103.992 27.9668L104.891 30.18Z" fill="#263238"/>
<path id="Vector_67" d="M102.575 23.4901C103.339 23.2958 104.09 23.0573 104.825 22.7758C105.149 22.6031 105.453 22.3974 105.734 22.1622L106.521 22.5143C106.521 22.5143 107.74 23.6108 106.998 24.31C106.257 25.0091 102.773 24.6872 102.773 24.6872L102.575 23.4901Z" fill="#263238"/>
<path id="Vector_68" d="M101.443 23.3241C101.933 23.1631 102.453 23.1099 102.966 23.1682C102.883 23.7549 102.997 24.3525 103.291 24.8683L101.768 25.0293L101.443 23.3241Z" fill="#407BFF"/>
<path id="Vector_69" opacity="0.8" d="M101.443 23.3241C101.933 23.1631 102.453 23.1099 102.966 23.1682C102.883 23.7549 102.997 24.3525 103.291 24.8683L101.768 25.0293L101.443 23.3241Z" fill="white"/>
<path id="Vector_70" d="M96.8778 12.3386C96.8778 12.3386 94.2525 13.2339 94.4048 21.0103C94.4353 22.5897 94.156 26.1761 98.5586 25.8089L102.931 25.1148C102.586 24.4812 102.451 23.7562 102.545 23.0424C102.545 23.0424 99.1426 22.8161 97.3907 22.5696C97.3907 22.5696 97.5176 17.107 98.2692 16.4431C98.2692 16.4431 98.193 13.7067 96.8778 12.3386Z" fill="#263238"/>
<path id="Vector_71" opacity="0.2" d="M97.4719 19.5918L97.0555 16.2318C97.0555 16.2318 97.0555 22.4388 96.6493 22.8261C96.2431 23.2134 97.3907 22.5696 97.3907 22.5696L97.4719 19.5918Z" fill="black"/>
<path id="Vector_72" opacity="0.2" d="M109.055 31.6035C108.643 31.6689 108.039 31.7343 107.201 31.7996C106.453 31.8974 105.697 31.7005 105.094 31.2514C105.02 31.1954 104.935 31.1543 104.845 31.1307C104.736 31.1001 104.619 31.1013 104.51 31.1343C104.401 31.1673 104.304 31.2307 104.231 31.3168C103.903 31.6373 103.482 31.8484 103.027 31.9204C101.679 32.1239 100.306 32.1018 98.9648 31.855V29.0583L101.565 27.8511H103.946L103.992 27.9668L104.871 27.3934L107.333 26.996L108.664 29.1237C108.755 29.7223 108.882 30.5623 109.055 31.6035Z" fill="black"/>
<path id="Vector_73" d="M109.243 27.1368C109.106 26.2921 109.048 25.4368 109.07 24.5816C109.446 16.438 109.101 14.1645 108.974 12.741C108.961 12.6157 108.91 12.4971 108.829 12.4003C108.747 12.3036 108.639 12.2331 108.517 12.1977C102.773 10.4976 98.4571 11.7601 97.0657 12.243C96.9303 12.289 96.8148 12.3794 96.7382 12.4992C96.6615 12.6189 96.6284 12.761 96.6442 12.9019C96.8981 15.3012 98.0305 23.2386 98.2134 27.1419C98.2134 27.7153 98.2134 29.7223 98.2134 30.4818C98.2094 30.6291 98.2581 30.7731 98.3511 30.8882C98.444 31.0033 98.5752 31.0821 98.7212 31.1105C100.006 31.3218 103.215 31.7292 104.195 30.6075C104.303 30.4883 104.453 30.4148 104.614 30.4026C104.774 30.3904 104.934 30.4404 105.058 30.5421C105.659 30.9912 106.415 31.1865 107.161 31.0854C107.855 31.0481 108.547 30.9726 109.233 30.859C109.319 30.8451 109.402 30.8133 109.476 30.7658C109.549 30.7183 109.612 30.656 109.66 30.5831C109.707 30.5101 109.739 30.4281 109.753 30.3422C109.767 30.2563 109.763 30.1685 109.74 30.0844C109.588 29.3802 109.309 27.6449 109.243 27.1368Z" fill="#263238"/>
<path id="Vector_74" d="M104.688 24.2697C104.688 24.3663 104.649 24.4589 104.581 24.5276C104.512 24.5963 104.419 24.6356 104.322 24.6369C104.273 24.6376 104.224 24.6286 104.179 24.6104C104.133 24.5923 104.092 24.5653 104.057 24.5312C104.022 24.497 103.994 24.4563 103.975 24.4114C103.956 24.3665 103.946 24.3184 103.946 24.2697C103.948 24.1732 103.987 24.0811 104.057 24.0133C104.126 23.9456 104.22 23.9076 104.317 23.9076C104.365 23.9069 104.414 23.9158 104.458 23.9337C104.503 23.9516 104.544 23.9782 104.579 24.0119C104.613 24.0456 104.641 24.0857 104.659 24.13C104.678 24.1742 104.688 24.2218 104.688 24.2697Z" fill="white"/>
<path id="Vector_75" d="M104.916 27.3129C104.915 27.4094 104.875 27.5015 104.806 27.5693C104.737 27.637 104.643 27.675 104.546 27.675C104.449 27.675 104.356 27.6369 104.287 27.569C104.218 27.501 104.18 27.4089 104.18 27.3129C104.18 27.2164 104.218 27.1237 104.287 27.055C104.355 26.9863 104.448 26.947 104.546 26.9457C104.644 26.9457 104.738 26.9844 104.808 27.0532C104.877 27.1221 104.916 27.2155 104.916 27.3129Z" fill="white"/>
<path id="Vector_76" d="M103.855 11.4885L103.281 8.11339L100.818 7.35385V11.5187L101.971 12.5247L103.271 12.4694L104.15 11.5187L103.855 11.4885Z" fill="#DD8C6A"/>
<path id="Vector_77" d="M104.632 11.4131C104.632 11.5841 104.449 16.0608 104.073 22.4187L100.326 11.4583L100.508 11.4181L102.626 12.4643H103.271L104.469 11.3779L104.632 11.4131Z" fill="white"/>
<path id="Vector_78" d="M102.255 13.2641L102.712 13.9784H103.307L103.687 13.1635L102.951 12.4694L102.255 13.2641Z" fill="#407BFF"/>
<path id="Vector_79" d="M103.053 19.456C102.961 19.3202 102.712 13.9784 102.712 13.9784H103.312L104.261 19.1039L104.068 22.4187L103.053 19.456Z" fill="#407BFF"/>
<path id="Vector_80" d="M100.813 11.3527L103.053 12.4694L102.113 13.7017L100.316 11.4634L100.813 11.3527Z" fill="#407BFF"/>
<path id="Vector_81" opacity="0.7" d="M100.813 11.3527L103.053 12.4694L102.113 13.7017L100.316 11.4634L100.813 11.3527Z" fill="white"/>
<path id="Vector_82" d="M104.627 11.408V11.4131L103.885 13.7067L103.002 12.5398L102.946 12.4694L102.981 12.4342L104.175 11.3376L104.464 11.3829L104.479 11.3879L104.627 11.408Z" fill="#407BFF"/>
<path id="Vector_83" opacity="0.7" d="M104.627 11.408V11.4131L103.885 13.7067L103.002 12.5398L102.946 12.4694L102.981 12.4342L104.175 11.3376L104.464 11.3829L104.479 11.3879L104.627 11.408Z" fill="white"/>
<path id="Vector_84" opacity="0.1" d="M100.818 8.33471C101.132 8.77778 101.538 9.14957 102.008 9.42536C102.478 9.70116 103.002 9.87463 103.545 9.93424L103.281 8.11339L100.818 7.35385V8.33471Z" fill="black"/>
<path id="Vector_85" d="M118.444 22.474C119.146 22.201 119.926 22.201 120.627 22.474C121.1 22.3837 121.587 22.3957 122.054 22.5092L122.364 23.7617C122.364 23.7617 120.963 24.7375 119.774 24.0685L118.251 23.5655L118.444 22.474Z" fill="#263238"/>
<path id="Vector_86" d="M117.83 21.7547L118.845 21.8453C118.969 22.1861 119.018 22.5496 118.987 22.9108C118.957 23.2719 118.847 23.6222 118.667 23.9377L117.571 23.5253L117.83 21.7547Z" fill="#407BFF"/>
<path id="Vector_87" opacity="0.8" d="M117.83 21.7547L118.845 21.8453C118.969 22.1861 119.018 22.5496 118.987 22.9108C118.957 23.2719 118.847 23.6222 118.667 23.9377L117.571 23.5253L117.83 21.7547Z" fill="white"/>
<path id="Vector_88" d="M118.546 21.7849C116.162 21.4383 113.845 20.7344 111.675 19.6975C111.675 19.6975 109.685 13.6615 109.05 12.6052C109.003 12.5278 108.938 12.4631 108.86 12.4168C108.782 12.3704 108.693 12.3438 108.602 12.3393C108.512 12.3348 108.421 12.3526 108.339 12.3911C108.256 12.4296 108.185 12.4876 108.131 12.5599L106.881 14.2198C106.832 14.2852 106.798 14.3607 106.782 14.4408C106.767 14.521 106.769 14.6036 106.79 14.6826C107.044 15.6886 108.506 20.5174 109.791 21.8302C110.974 23.0374 116.393 23.6863 118.322 23.8422C118.554 23.1822 118.63 22.4786 118.546 21.7849Z" fill="#263238"/>
<path id="Vector_89" d="M99.6555 5.23624C99.8535 7.09734 99.9043 7.88704 100.9 8.8025C102.423 10.1757 104.662 9.52179 105.028 7.63554C105.353 5.94043 104.962 3.17394 103.083 2.52507C102.439 2.29741 101.731 2.33217 101.113 2.62171C100.495 2.91124 100.018 3.43188 99.7875 4.06927C99.6512 4.44249 99.6059 4.84238 99.6555 5.23624Z" fill="#DD8C6A"/>
<path id="Vector_90" d="M103.891 5.83481C104.094 6.14841 104.342 6.43131 104.627 6.67481C104.562 6.74339 104.483 6.79765 104.396 6.83405C104.308 6.87045 104.214 6.88818 104.119 6.88608L103.891 5.83481Z" fill="#C13B37"/>
<path id="Vector_91" d="M101.946 5.24628C101.965 5.25154 101.985 5.24987 102.002 5.24155C102.02 5.23323 102.034 5.21882 102.042 5.20101C102.125 5.08057 102.233 4.97858 102.358 4.90151C102.483 4.82444 102.623 4.77398 102.768 4.75335C102.792 4.74962 102.813 4.73703 102.827 4.71827C102.841 4.6995 102.847 4.67602 102.844 4.65274C102.843 4.64098 102.84 4.62961 102.834 4.61932C102.828 4.60903 102.82 4.60005 102.81 4.59297C102.801 4.58588 102.79 4.58082 102.778 4.57812C102.767 4.57542 102.755 4.57515 102.743 4.57729C102.568 4.60113 102.4 4.66198 102.252 4.75572C102.103 4.84947 101.976 4.97389 101.88 5.12053C101.869 5.1419 101.867 5.16656 101.875 5.18916C101.883 5.21175 101.899 5.23047 101.92 5.24126L101.946 5.24628Z" fill="#263238"/>
<path id="Vector_92" d="M104.901 4.76342C104.92 4.76642 104.94 4.76317 104.958 4.75416C104.975 4.74516 104.989 4.73088 104.997 4.71341C105.006 4.69594 105.009 4.6762 105.005 4.65713C105.001 4.63807 104.992 4.62067 104.977 4.60749C104.868 4.51136 104.737 4.44355 104.595 4.41018C104.454 4.37681 104.306 4.37893 104.165 4.41635C104.154 4.41868 104.144 4.42319 104.135 4.4296C104.126 4.436 104.118 4.44416 104.112 4.45359C104.107 4.46301 104.103 4.4735 104.101 4.4844C104.1 4.49529 104.101 4.50638 104.104 4.51695C104.107 4.52801 104.113 4.53825 104.12 4.54707C104.128 4.5559 104.137 4.56311 104.148 4.56829C104.158 4.57346 104.17 4.57649 104.181 4.57717C104.193 4.57786 104.205 4.57619 104.216 4.57228C104.326 4.54756 104.44 4.54927 104.55 4.57727C104.66 4.60526 104.761 4.65873 104.845 4.73324C104.86 4.7496 104.879 4.76031 104.901 4.76342Z" fill="#263238"/>
<path id="Vector_93" d="M104.155 7.32871C104.08 7.61976 104.026 7.91554 103.992 8.21398H103.835C103.109 8.24416 102.763 8.02285 102.601 7.76632C102.522 7.6402 102.477 7.4967 102.469 7.34882C102.456 7.26548 102.456 7.18066 102.469 7.09732C102.923 7.27694 103.412 7.35592 103.901 7.32871H104.155Z" fill="#263238"/>
<path id="Vector_94" d="M103.911 7.33372L103.855 7.59529C103.379 7.67014 102.891 7.58515 102.469 7.35384C102.456 7.2705 102.456 7.18568 102.469 7.10234C102.926 7.28342 103.419 7.36241 103.911 7.33372Z" fill="white"/>
<path id="Vector_95" d="M103.835 8.21901C103.109 8.24919 102.763 8.02787 102.601 7.77134C102.875 7.76497 103.149 7.80756 103.408 7.89709C103.581 7.95744 103.73 8.07005 103.835 8.21901Z" fill="#DE5753"/>
<path id="Vector_96" d="M104.916 5.48772C104.97 5.45493 105.021 5.41792 105.069 5.37706C105.076 5.36876 105.08 5.35801 105.08 5.34688C105.08 5.33574 105.076 5.325 105.069 5.3167C105.065 5.31335 105.061 5.31068 105.057 5.30887C105.053 5.30705 105.048 5.30612 105.043 5.30612C105.039 5.30612 105.034 5.30705 105.029 5.30887C105.025 5.31068 105.021 5.31335 105.018 5.3167C104.902 5.4226 104.759 5.49645 104.605 5.53087C104.451 5.56529 104.29 5.55907 104.139 5.51286C104.13 5.51105 104.12 5.51259 104.112 5.51719C104.104 5.52179 104.097 5.52917 104.094 5.53802C104.089 5.54643 104.086 5.55597 104.086 5.56568C104.086 5.57539 104.089 5.58493 104.094 5.59334C104.23 5.64005 104.375 5.65482 104.518 5.63649C104.66 5.61816 104.797 5.56724 104.916 5.48772Z" fill="#263238"/>
<path id="Vector_97" d="M103.068 5.79957C103.134 5.77481 103.197 5.74275 103.256 5.704C103.262 5.69686 103.265 5.688 103.265 5.67885C103.265 5.66971 103.262 5.66083 103.256 5.65369C103.247 5.64785 103.236 5.64474 103.225 5.64474C103.215 5.64474 103.204 5.64785 103.195 5.65369C103.045 5.74715 102.875 5.80409 102.698 5.81983C102.522 5.83557 102.344 5.80967 102.179 5.74425C102.176 5.7409 102.172 5.73823 102.168 5.73642C102.163 5.7346 102.159 5.73367 102.154 5.73367C102.149 5.73367 102.144 5.7346 102.14 5.73642C102.136 5.73823 102.132 5.7409 102.128 5.74425C102.125 5.74752 102.122 5.75142 102.121 5.75574C102.119 5.76006 102.118 5.76471 102.118 5.76939C102.118 5.77407 102.119 5.77872 102.121 5.78304C102.122 5.78735 102.125 5.79126 102.128 5.79453C102.276 5.8616 102.436 5.89674 102.598 5.89761C102.76 5.89848 102.92 5.86505 103.068 5.79957Z" fill="#263238"/>
<path id="Vector_98" d="M100.117 7.75123C100.117 7.75123 101.433 5.23624 100.818 4.59743C100.204 3.95862 100.818 3.80771 100.818 3.80771C104.881 3.68699 104.662 2.40434 104.124 1.59451C103.972 1.36329 103.769 1.1699 103.529 1.02943C103.29 0.888962 103.02 0.805198 102.743 0.78468C102.528 0.775891 102.318 0.848557 102.156 0.987841C101.994 1.12713 101.891 1.32253 101.869 1.53415C101.869 1.53415 97.548 1.17701 98.7921 5.21107C99.174 6.08714 99.6169 6.93591 100.117 7.75123Z" fill="#263238"/>
<path id="Vector_99" d="M99.2086 6.69492C99.3434 7.02327 99.602 7.28668 99.9296 7.42929C100.371 7.60534 100.651 7.23313 100.575 6.79049C100.498 6.34785 100.194 5.81467 99.7316 5.81467C99.5704 5.82122 99.4183 5.89029 99.3081 6.00699C99.1979 6.12369 99.1384 6.27864 99.1425 6.43838C99.144 6.52782 99.1666 6.61568 99.2086 6.69492Z" fill="#DD8C6A"/>
<path id="Vector_100" d="M104.454 3.14375C102.255 3.14375 100.285 2.97776 98.6805 4.46664C98.1727 4.21011 98.122 3.96364 98.1727 3.41537C98.1686 2.99302 98.3162 2.58298 98.5891 2.25847C98.9114 1.97728 99.2786 1.7512 99.6758 1.58948L102.306 0.352095C102.743 0.0958793 103.246 -0.0282482 103.753 -0.00503064C103.968 0.0280984 104.171 0.114096 104.343 0.245057C104.515 0.376018 104.651 0.547736 104.739 0.744434C104.853 1.55512 104.755 2.38141 104.454 3.14375Z" fill="#263238"/>
<path id="Vector_101" d="M100.321 3.28459C100.321 3.28459 102.86 4.11453 103.687 3.97369C104.515 3.83285 104.652 2.15786 104.652 2.15786C104.652 2.15786 102.621 1.32792 100.321 3.28459Z" fill="#263238"/>
<path id="Vector_102" opacity="0.3" d="M104.662 2.42949C104.626 2.68703 104.547 2.93686 104.429 3.16889C103.251 2.66589 101.89 3.04314 100.102 3.56626L100.366 3.30973C102.646 1.35809 104.703 2.14781 104.703 2.14781C104.676 2.23932 104.662 2.33416 104.662 2.42949Z" fill="white"/>
<path id="Vector_103" d="M100.102 3.68697C100.102 3.71736 100.096 3.74746 100.085 3.77553C100.073 3.8036 100.056 3.82911 100.034 3.85059C100.012 3.87208 99.9865 3.88911 99.9581 3.90074C99.9298 3.91237 99.8994 3.91836 99.8687 3.91836C99.838 3.91836 99.8077 3.91237 99.7793 3.90074C99.751 3.88911 99.7252 3.87208 99.7035 3.85059C99.6818 3.82911 99.6647 3.8036 99.6529 3.77553C99.6412 3.74746 99.6351 3.71736 99.6351 3.68697C99.6351 3.65659 99.6412 3.6265 99.6529 3.59843C99.6647 3.57036 99.6818 3.54485 99.7035 3.52337C99.7252 3.50188 99.751 3.48485 99.7793 3.47322C99.8077 3.46159 99.838 3.4556 99.8687 3.4556C99.8994 3.4556 99.9298 3.46159 99.9581 3.47322C99.9865 3.48485 100.012 3.50188 100.034 3.52337C100.056 3.54485 100.073 3.57036 100.085 3.59843C100.096 3.6265 100.102 3.65659 100.102 3.68697Z" fill="white"/>
</g>
</g>
<defs>
<clipPath id="clip0_594_33860">
<rect width="210" height="83" fill="white"/>
</clipPath>
</defs>
</svg>
